<svg width="18" height="13" viewBox="0 0 18 13" fill="none" xmlns="http://www.w3.org/2000/svg">
<path d="M0 2.16667C0 1.59203 0.237053 1.04093 0.65901 0.634602C1.08097 0.228273 1.65326 0 2.25 0H15.75C16.3467 0 16.919 0.228273 17.341 0.634602C17.7629 1.04093 18 1.59203 18 2.16667V7.58333H0V2.16667ZM12.9375 3.25C12.7883 3.25 12.6452 3.30707 12.5398 3.40865C12.4343 3.51023 12.375 3.64801 12.375 3.79167V4.875C12.375 5.01866 12.4343 5.15643 12.5398 5.25802C12.6452 5.3596 12.7883 5.41667 12.9375 5.41667H15.1875C15.3367 5.41667 15.4798 5.3596 15.5852 5.25802C15.6907 5.15643 15.75 5.01866 15.75 4.875V3.79167C15.75 3.64801 15.6907 3.51023 15.5852 3.40865C15.4798 3.30707 15.3367 3.25 15.1875 3.25H12.9375ZM0 9.75V10.8333C0 11.408 0.237053 11.9591 0.65901 12.3654C1.08097 12.7717 1.65326 13 2.25 13H15.75C16.3467 13 16.919 12.7717 17.341 12.3654C17.7629 11.9591 18 11.408 18 10.8333V9.75H0Z" fill="#262626"/>
</svg>
