<svg height="512" viewBox="0 0 24 24" width="512" xmlns="http://www.w3.org/2000/svg"><g id="_01" data-name="01"><path d="m22 10.75a.755.755 0 0 0 .75-.75v-1c0-4.41-1.34-5.75-5.75-5.75h-6.25v2.25a.75.75 0 0 1 -1.5 0v-2.25h-2.25c-4.41 0-5.75 1.34-5.75 5.75v.5a.755.755 0 0 0 .75.75 1.75 1.75 0 0 1 0 3.5.755.755 0 0 0 -.75.75v.5c0 4.41 1.34 5.75 5.75 5.75h2.25v-2.25a.75.75 0 0 1 1.5 0v2.25h6.25c4.41 0 5.75-1.34 5.75-5.75a.755.755 0 0 0 -.75-.75 1.75 1.75 0 0 1 0-3.5zm-11.25 3.42a.75.75 0 1 1 -1.5 0v-4.34a.75.75 0 1 1 1.5 0z"/></g></svg>