<svg width="18" height="17" viewBox="0 0 18 17" fill="none" xmlns="http://www.w3.org/2000/svg">
<path d="M6 16.6154H2C0.9 16.6154 0 15.7846 0 14.7692V1.84615C0 0.830769 0.9 0 2 0H6C7.1 0 8 0.830769 8 1.84615V14.7692C8 15.7846 7.1 16.6154 6 16.6154ZM12 16.6154H16C17.1 16.6154 18 15.7846 18 14.7692V10.1538C18 9.13846 17.1 8.30769 16 8.30769H12C10.9 8.30769 10 9.13846 10 10.1538V14.7692C10 15.7846 10.9 16.6154 12 16.6154ZM18 4.61538V1.84615C18 0.830769 17.1 0 16 0H12C10.9 0 10 0.830769 10 1.84615V4.61538C10 5.63077 10.9 6.46154 12 6.46154H16C17.1 6.46154 18 5.63077 18 4.61538Z" fill="#262626"/>
</svg>
