<svg width="18" height="18" viewBox="0 0 18 18" fill="none" xmlns="http://www.w3.org/2000/svg">
<path d="M14.4231 17.9998C13.6387 17.9998 12.5367 17.7162 10.8867 16.7945C8.88015 15.6695 7.32813 14.6308 5.33246 12.6408C3.40831 10.7182 2.47196 9.47345 1.16147 7.08922C-0.319011 4.39722 -0.0666378 2.98614 0.215473 2.38305C0.551435 1.66224 1.04734 1.23112 1.68832 0.803208C2.05239 0.56472 2.43767 0.360281 2.83927 0.192487C2.87946 0.17521 2.91683 0.158736 2.95018 0.14387C3.14911 0.0542707 3.45051 -0.0811327 3.83228 0.0635119C4.08707 0.159138 4.31453 0.35481 4.67058 0.706377C5.40077 1.42639 6.39861 3.02993 6.76672 3.81744C7.01387 4.34821 7.17743 4.69857 7.17783 5.09152C7.17783 5.55157 6.94636 5.90635 6.66545 6.28926C6.61281 6.36118 6.56056 6.42988 6.50993 6.49658C6.20411 6.89837 6.137 7.01449 6.1812 7.22181C6.27082 7.63847 6.93912 8.8788 8.03743 9.97448C9.13573 11.0702 10.3405 11.6962 10.7589 11.7853C10.9751 11.8316 11.0936 11.7616 11.5084 11.445C11.5678 11.3996 11.6289 11.3526 11.6928 11.3056C12.1212 10.987 12.4596 10.7616 12.9089 10.7616H12.9113C13.3023 10.7616 13.6371 10.9311 14.1916 11.2108C14.915 11.5756 16.5671 12.5604 17.2916 13.2913C17.6441 13.6464 17.8406 13.8731 17.9366 14.1274C18.0813 14.5103 17.9451 14.8104 17.8563 15.0113C17.8414 15.0447 17.8249 15.0812 17.8076 15.1218C17.6385 15.5226 17.4328 15.907 17.1932 16.2701C16.766 16.909 16.3332 17.4036 15.6106 17.7399C15.2396 17.9154 14.8335 18.0042 14.4231 17.9998Z" fill="#262626"/>
</svg>
