<svg width="18" height="20" viewBox="0 0 18 20" fill="none" xmlns="http://www.w3.org/2000/svg">
<path d="M9 10.89C11.396 10.89 13.575 11.5771 15.178 12.5443C15.978 13.0294 16.662 13.5986 17.156 14.2174C17.642 14.8272 18 15.5559 18 16.335C18 17.1716 17.589 17.8309 16.997 18.3011C16.437 18.7466 15.698 19.0417 14.913 19.2476C13.335 19.6604 11.229 19.8 9 19.8C6.771 19.8 4.665 19.6614 3.087 19.2476C2.302 19.0417 1.563 18.7466 1.003 18.3011C0.41 17.8299 0 17.1716 0 16.335C0 15.5559 0.358 14.8272 0.844 14.2174C1.338 13.5986 2.021 13.0294 2.822 12.5443C4.425 11.5771 6.605 10.89 9 10.89ZM9 0C10.3261 0 11.5979 0.521516 12.5355 1.44982C13.4732 2.37813 14 3.63718 14 4.95C14 6.26282 13.4732 7.52187 12.5355 8.45018C11.5979 9.37848 10.3261 9.9 9 9.9C7.67392 9.9 6.40215 9.37848 5.46447 8.45018C4.52678 7.52187 4 6.26282 4 4.95C4 3.63718 4.52678 2.37813 5.46447 1.44982C6.40215 0.521516 7.67392 0 9 0Z" fill="#262626"/>
</svg>
